<?xml version="1.0" encoding="UTF-8" standalone="no"?>
<!-- Created with Inkscape (http://www.inkscape.org/) -->

<svg
   width="177.16104mm"
   height="128.19559mm"
   viewBox="0 0 177.16104 128.19559"
   version="1.1"
   id="svg1"
   inkscape:version="1.4 (86a8ad7, 2024-10-11)"
   sodipodi:docname="hyperdome_logo_export_blue.svg"
   xml:space="preserve"
   xmlns:inkscape="http://www.inkscape.org/namespaces/inkscape"
   xmlns:sodipodi="http://sodipodi.sourceforge.net/DTD/sodipodi-0.dtd"
   xmlns="http://www.w3.org/2000/svg"
   xmlns:svg="http://www.w3.org/2000/svg"><sodipodi:namedview
     id="namedview1"
     pagecolor="#ffffff"
     bordercolor="#000000"
     borderopacity="0.25"
     inkscape:showpageshadow="2"
     inkscape:pageopacity="0.0"
     inkscape:pagecheckerboard="0"
     inkscape:deskcolor="#d1d1d1"
     inkscape:document-units="mm"
     inkscape:zoom="0.49264169"
     inkscape:cx="76.120232"
     inkscape:cy="59.881249"
     inkscape:window-width="1280"
     inkscape:window-height="698"
     inkscape:window-x="-6"
     inkscape:window-y="-6"
     inkscape:window-maximized="1"
     inkscape:current-layer="layer1" /><defs
     id="defs1" /><g
     inkscape:label="Layer 1"
     inkscape:groupmode="layer"
     id="layer1"
     transform="translate(-10.84792,-100.27708)"><g
       id="g33"
       transform="translate(218.17818,-338.66492)"
       style="fill:#0f00ff;fill-opacity:1"><g
         id="g27"
         transform="translate(31.140829,-9.8739218)"
         style="fill:#0f00ff;fill-opacity:1"><g
           id="g26"
           transform="translate(322.24231,313.64919)"
           style="fill:#0f00ff;fill-opacity:1"><path
             style="fill:#0f00ff;fill-opacity:1;stroke:none;stroke-width:0.5"
             d="m -420.02003,135.16673 c -16.7376,-1e-5 -30.37093,13.63349 -30.37109,30.37109 v 36.0879 h 60.7422 v -36.0879 c -1.6e-4,-16.7376 -13.6335,-30.3711 -30.37111,-30.37109 z m 0,6 c 13.49499,-1e-5 24.37099,10.87611 24.37111,24.37109 v 30.0879 h -48.7422 v -30.0879 c 1.3e-4,-13.49498 10.87611,-24.3711 24.37109,-24.37109 z"
             id="path19" /><rect
             style="fill:#0f00ff;fill-opacity:1;stroke:none;stroke-width:10.3182;stroke-dasharray:none;stroke-opacity:1"
             id="rect20"
             width="72.935349"
             height="6"
             x="-456.4877"
             y="195.62572" /><rect
             style="fill:#0f00ff;fill-opacity:1;stroke:none;stroke-width:7.3729;stroke-dasharray:none;stroke-opacity:1"
             id="rect21"
             width="49.652515"
             height="4.5"
             x="-445.03687"
             y="171.8564" /><rect
             style="fill:#0f00ff;fill-opacity:1;stroke:none;stroke-width:6.80255;stroke-dasharray:none;stroke-opacity:1"
             id="rect22"
             width="42.267796"
             height="4.5"
             x="201.62572"
             y="430.68277"
             transform="rotate(90)" /><rect
             style="fill:#0f00ff;fill-opacity:1;stroke:none;stroke-width:8.22125;stroke-dasharray:none;stroke-opacity:1"
             id="rect23"
             width="61.736607"
             height="4.5"
             x="201.62572"
             y="403.42645"
             transform="rotate(90)" /><rect
             style="fill:#0f00ff;fill-opacity:1;stroke:none;stroke-width:5.8938;stroke-dasharray:none;stroke-opacity:1"
             id="rect24"
             width="31.729282"
             height="4.5"
             x="403.30069"
             y="-191.72449"
             transform="scale(-1)"
             rx="1.6139466" /><rect
             style="fill:#0f00ff;fill-opacity:1;stroke:none;stroke-width:5.8938;stroke-dasharray:none;stroke-opacity:1"
             id="rect25"
             width="31.729282"
             height="4.5"
             x="403.30069"
             y="-184.8454"
             transform="scale(-1)"
             rx="1.6139466" /><path
             id="path25"
             style="fill:#0f00ff;fill-opacity:1;stroke:none;stroke-width:1.80143;stroke-dasharray:none;stroke-opacity:1"
             d="m -412.1873,148.18447 -16.01995,0.11395 -2.91067,13.45447 h 4.73485 0.0796 v 1.25471 l 15.54143,0.0566 z m -8.7527,2.02391 a 5.4159875,5.4159875 0 0 1 5.41596,5.41595 5.4159875,5.4159875 0 0 1 -5.41596,5.41594 5.4159875,5.4159875 0 0 1 -5.41594,-5.41594 5.4159875,5.4159875 0 0 1 5.41594,-5.41595 z" /><path
             id="path26"
             style="opacity:1;fill:#0f00ff;fill-opacity:1;stroke:none;stroke-width:11.3058;stroke-dasharray:none;stroke-opacity:1"
             d="m -423.2785,164.94769 v 5.90145 h 10.6071 v -5.90145 z m 6.8001,0.601 a 2.3496835,2.3496835 0 0 1 2.34972,2.34973 2.3496835,2.3496835 0 0 1 -2.34972,2.34972 2.3496835,2.3496835 0 0 1 -2.34973,-2.34972 2.3496835,2.3496835 0 0 1 2.34973,-2.34973 z" /><rect
             style="opacity:1;fill:#0f00ff;fill-opacity:1;stroke:none;stroke-width:17.0919;stroke-dasharray:none;stroke-opacity:1"
             id="rect26"
             width="3.0090742"
             height="5.9014492"
             x="-427.34592"
             y="164.94768" /></g></g><path
         style="font-size:26.6265px;font-family:'Star Jedi';-inkscape-font-specification:'Star Jedi';stroke-width:100.636;fill:#0f00ff;fill-opacity:1"
         d="m -192.40486,481.06628 v -6.47461 h 6.11057 v 18.77376 h -6.11057 v -6.76063 h -4.91446 v 6.76063 h -6.11058 v -13.18324 h -3.90036 v -5.59052 h 10.01094 v 6.47461 z m 27.45858,-6.47461 -8.19077,11.88311 v 6.89065 h -6.13658 v -6.89065 l -8.19077,-11.88311 h 7.4107 l 3.82236,5.79854 3.87436,-5.79854 z m -0.91009,18.77376 v -18.77376 h 12.22115 q 2.26221,0.20802 3.74435,1.17011 1.48214,0.96209 2.1062,2.67825 0.57205,2.0802 0.46804,3.12029 -0.10401,1.0401 -0.41604,1.95019 -0.31203,0.91008 -1.71616,2.10619 -1.40413,1.19612 -3.74435,1.54715 h -5.87655 v 6.20158 z m 6.78664,-14.09332 v 3.45832 h 4.73244 q 0.37704,0 0.81908,-0.27302 0.44204,-0.28603 0.46804,-1.41714 -0.065,-1.0791 -0.53305,-1.41713 -0.45504,-0.35103 -0.76707,-0.35103 z m 12.72819,14.09332 v -18.77376 h 16.09551 v 5.59052 h -9.98493 v 2.15821 h 6.4486 v 3.2763 h -6.4486 v 2.15821 h 11.57108 v 5.59052 z m 17.68166,0 v -18.77376 h 12.22115 q 2.26221,0.20802 3.71835,1.19611 1.45613,0.98809 2.1322,2.65225 0.52005,2.49624 0.052,3.84836 -0.46804,1.35213 -1.63815,2.26221 -1.17011,0.91009 -3.35432,1.43014 l 1.40414,1.79417 h 5.61652 v 5.59052 h -7.41069 l -5.95456,-6.20158 v 6.20158 z m 6.78664,-14.09332 v 3.45832 h 4.73244 q 0.37704,0 0.81908,-0.27302 0.44204,-0.28603 0.46804,-1.41714 -0.065,-1.0791 -0.53305,-1.41713 -0.45504,-0.35103 -0.76707,-0.35103 z"
         id="text1"
         aria-label="Hyper" /><path
         style="font-size:26.6265px;font-family:'Star Jedi';-inkscape-font-specification:'Star Jedi';stroke-width:108.016;fill:#0f00ff;fill-opacity:1"
         d="m -189.47148,519.55138 v -20.15064 h 11.88943 q 2.41417,0 4.25619,0.64192 1.84203,0.64192 3.11191,1.73038 1.26988,1.08848 2.10716,2.94446 0.85123,1.85597 0.85123,4.82833 -0.1535,2.74907 -0.92101,4.67484 -0.7675,1.92575 -2.03738,3.04213 -1.26988,1.11637 -3.11191,1.73038 -1.82807,0.614 -4.5911,0.5582 z m 6.72618,-15.15485 v 10.13114 h 3.83756 q 1.29778,0 2.0932,-0.54423 0.79542,-0.5582 1.29779,-1.40943 0.50237,-0.86521 0.64191,-3.09796 -0.0419,-2.03737 -0.57213,-3.00026 -0.51634,-0.97682 -1.33966,-1.52107 -0.82333,-0.55819 -2.14903,-0.55819 z m 38.90578,5.19116 q 0,3.30728 -1.38151,5.63772 -1.38153,2.33044 -4.00501,3.50263 -2.60953,1.1722 -6.23777,1.1722 -3.62823,0 -6.23776,-1.1722 -2.59559,-1.18615 -3.93523,-3.48868 -1.33966,-2.31648 -1.33966,-5.65167 0,-2.52581 0.76751,-4.4376 0.76751,-1.92575 2.24671,-3.23751 1.4792,-1.31173 3.62823,-1.98155 2.14903,-0.68379 4.8702,-0.68379 3.61428,0 6.23777,1.20011 2.62348,1.18614 4.00501,3.51658 1.38151,2.31649 1.38151,5.62376 z m -15.97817,0.0558 q 0,1.9397 0.8652,3.37704 0.87915,1.43734 3.44681,1.43734 1.98158,0 2.95841,-0.75356 0.99079,-0.75355 1.22802,-1.71643 0.25117,-0.97683 0.3349,-2.34439 -0.0837,-1.93971 -0.93495,-3.37706 -0.85125,-1.45127 -3.58638,-1.45127 -4.31201,0 -4.31201,4.82833 z m 16.66195,9.90787 v -20.15064 h 6.55873 l 4.40969,8.37284 4.38178,-8.37284 h 6.55873 v 20.15064 h -6.55873 v -8.37285 l -4.21432,8.37285 h -0.36282 l -4.21433,-8.37285 v 8.37285 z m 23.3044,0 v -20.15064 h 17.27595 v 6.00054 h -10.71723 v 2.31648 h 6.92153 v 3.51659 h -6.92153 v 2.31649 h 12.41971 v 6.00054 z"
         id="text3"
         aria-label="dome" /></g></g></svg>
